<svg width="48" height="48" viewBox="0 0 48 48" xmlns="http://www.w3.org/2000/svg">
  <defs>
    <linearGradient id="grad1" x1="0%" y1="0%" x2="100%" y2="100%">
      <stop offset="0%" style="stop-color:#4facfe;stop-opacity:1" />
      <stop offset="100%" style="stop-color:#00f2fe;stop-opacity:1" />
    </linearGradient>
  </defs>
  
  <!-- Background -->
  <rect width="48" height="48" rx="6" fill="url(#grad1)"/>
  
  <!-- QR Code Pattern -->
  <g fill="white">
    <!-- Corner squares -->
    <rect x="6" y="6" width="9" height="9" rx="1"/>
    <rect x="33" y="6" width="9" height="9" rx="1"/>
    <rect x="6" y="33" width="9" height="9" rx="1"/>
    
    <!-- Center dots in corner squares -->
    <rect x="9" y="9" width="3" height="3"/>
    <rect x="36" y="9" width="3" height="3"/>
    <rect x="9" y="36" width="3" height="3"/>
    
    <!-- Timing patterns -->
    <rect x="18" y="6" width="3" height="3"/>
    <rect x="24" y="6" width="3" height="3"/>
    <rect x="6" y="18" width="3" height="3"/>
    <rect x="6" y="24" width="3" height="3"/>
    
    <!-- Data pattern grid -->
    <rect x="18" y="18" width="3" height="3"/>
    <rect x="24" y="18" width="3" height="3"/>
    <rect x="30" y="18" width="3" height="3"/>
    <rect x="36" y="18" width="3" height="3"/>
    <rect x="42" y="18" width="3" height="3"/>
    
    <rect x="18" y="24" width="3" height="3"/>
    <rect x="24" y="24" width="3" height="3"/>
    <rect x="30" y="24" width="3" height="3"/>
    <rect x="36" y="24" width="3" height="3"/>
    <rect x="42" y="24" width="3" height="3"/>
    
    <rect x="18" y="30" width="3" height="3"/>
    <rect x="24" y="30" width="3" height="3"/>
    <rect x="30" y="30" width="3" height="3"/>
    <rect x="36" y="30" width="3" height="3"/>
    <rect x="42" y="30" width="3" height="3"/>
    
    <rect x="18" y="36" width="3" height="3"/>
    <rect x="24" y="36" width="3" height="3"/>
    <rect x="30" y="36" width="3" height="3"/>
    
    <rect x="18" y="42" width="3" height="3"/>
    <rect x="24" y="42" width="3" height="3"/>
    <rect x="30" y="42" width="3" height="3"/>
    <rect x="36" y="42" width="3" height="3"/>
    <rect x="42" y="42" width="3" height="3"/>
  </g>
</svg>