<svg width="128" height="128" viewBox="0 0 128 128" xmlns="http://www.w3.org/2000/svg">
  <defs>
    <linearGradient id="grad1" x1="0%" y1="0%" x2="100%" y2="100%">
      <stop offset="0%" style="stop-color:#4facfe;stop-opacity:1" />
      <stop offset="100%" style="stop-color:#00f2fe;stop-opacity:1" />
    </linearGradient>
    <filter id="shadow" x="-20%" y="-20%" width="140%" height="140%">
      <feDropShadow dx="2" dy="2" stdDeviation="3" flood-opacity="0.3"/>
    </filter>
  </defs>
  
  <!-- Background -->
  <rect width="128" height="128" rx="16" fill="url(#grad1)" filter="url(#shadow)"/>
  
  <!-- QR Code Pattern -->
  <g fill="white">
    <!-- Corner squares -->
    <rect x="16" y="16" width="24" height="24" rx="3"/>
    <rect x="88" y="16" width="24" height="24" rx="3"/>
    <rect x="16" y="88" width="24" height="24" rx="3"/>
    
    <!-- Center dots in corner squares -->
    <rect x="24" y="24" width="8" height="8" rx="1"/>
    <rect x="96" y="24" width="8" height="8" rx="1"/>
    <rect x="24" y="96" width="8" height="8" rx="1"/>
    
    <!-- Timing patterns -->
    <rect x="48" y="16" width="8" height="8"/>
    <rect x="64" y="16" width="8" height="8"/>
    <rect x="16" y="48" width="8" height="8"/>
    <rect x="16" y="64" width="8" height="8"/>
    
    <!-- Center alignment pattern -->
    <rect x="56" y="56" width="16" height="16" rx="2"/>
    <rect x="60" y="60" width="8" height="8"/>
    
    <!-- Data pattern grid -->
    <rect x="48" y="48" width="8" height="8"/>
    <rect x="64" y="48" width="8" height="8"/>
    <rect x="80" y="48" width="8" height="8"/>
    <rect x="96" y="48" width="8" height="8"/>
    <rect x="112" y="48" width="8" height="8"/>
    
    <rect x="48" y="64" width="8" height="8"/>
    <rect x="80" y="64" width="8" height="8"/>
    <rect x="96" y="64" width="8" height="8"/>
    <rect x="112" y="64" width="8" height="8"/>
    
    <rect x="48" y="80" width="8" height="8"/>
    <rect x="64" y="80" width="8" height="8"/>
    <rect x="80" y="80" width="8" height="8"/>
    <rect x="96" y="80" width="8" height="8"/>
    <rect x="112" y="80" width="8" height="8"/>
    
    <rect x="48" y="96" width="8" height="8"/>
    <rect x="64" y="96" width="8" height="8"/>
    <rect x="80" y="96" width="8" height="8"/>
    
    <rect x="48" y="112" width="8" height="8"/>
    <rect x="64" y="112" width="8" height="8"/>
    <rect x="80" y="112" width="8" height="8"/>
    <rect x="96" y="112" width="8" height="8"/>
    <rect x="112" y="112" width="8" height="8"/>
    
    <!-- Additional data modules -->
    <rect x="32" y="32" width="8" height="8"/>
    <rect x="32" y="48" width="8" height="8"/>
    <rect x="32" y="64" width="8" height="8"/>
    <rect x="32" y="80" width="8" height="8"/>
    <rect x="48" y="32" width="8" height="8"/>
    <rect x="64" y="32" width="8" height="8"/>
    <rect x="80" y="32" width="8" height="8"/>
  </g>
</svg>