<svg width="16" height="16" viewBox="0 0 16 16" xmlns="http://www.w3.org/2000/svg">
  <defs>
    <linearGradient id="grad1" x1="0%" y1="0%" x2="100%" y2="100%">
      <stop offset="0%" style="stop-color:#4facfe;stop-opacity:1" />
      <stop offset="100%" style="stop-color:#00f2fe;stop-opacity:1" />
    </linearGradient>
  </defs>
  
  <!-- Background -->
  <rect width="16" height="16" rx="2" fill="url(#grad1)"/>
  
  <!-- QR Code Pattern -->
  <g fill="white">
    <!-- Corner squares -->
    <rect x="2" y="2" width="3" height="3" rx="0.5"/>
    <rect x="11" y="2" width="3" height="3" rx="0.5"/>
    <rect x="2" y="11" width="3" height="3" rx="0.5"/>
    
    <!-- Center dots -->
    <rect x="3" y="3" width="1" height="1"/>
    <rect x="12" y="3" width="1" height="1"/>
    <rect x="3" y="12" width="1" height="1"/>
    
    <!-- Data pattern -->
    <rect x="6" y="2" width="1" height="1"/>
    <rect x="8" y="2" width="1" height="1"/>
    <rect x="2" y="6" width="1" height="1"/>
    <rect x="4" y="6" width="1" height="1"/>
    <rect x="6" y="6" width="1" height="1"/>
    <rect x="8" y="6" width="1" height="1"/>
    <rect x="10" y="6" width="1" height="1"/>
    <rect x="12" y="6" width="1" height="1"/>
    <rect x="14" y="6" width="1" height="1"/>
    <rect x="6" y="8" width="1" height="1"/>
    <rect x="8" y="8" width="1" height="1"/>
    <rect x="10" y="8" width="1" height="1"/>
    <rect x="12" y="8" width="1" height="1"/>
    <rect x="14" y="8" width="1" height="1"/>
    <rect x="6" y="10" width="1" height="1"/>
    <rect x="8" y="10" width="1" height="1"/>
    <rect x="10" y="10" width="1" height="1"/>
    <rect x="12" y="10" width="1" height="1"/>
    <rect x="14" y="10" width="1" height="1"/>
    <rect x="6" y="12" width="1" height="1"/>
    <rect x="8" y="12" width="1" height="1"/>
    <rect x="10" y="12" width="1" height="1"/>
    <rect x="6" y="14" width="1" height="1"/>
    <rect x="8" y="14" width="1" height="1"/>
    <rect x="10" y="14" width="1" height="1"/>
    <rect x="12" y="14" width="1" height="1"/>
    <rect x="14" y="14" width="1" height="1"/>
  </g>
</svg>