<svg xmlns="http://www.w3.org/2000/svg" width="128" height="128" viewBox="0 0 24 24" fill="none">
  <defs>
    <linearGradient id="grad1" x1="0%" y1="0%" x2="100%" y2="100%">
      <stop offset="0%" style="stop-color:#4facfe;stop-opacity:1" />
      <stop offset="100%" style="stop-color:#00f2fe;stop-opacity:1" />
    </linearGradient>
    <linearGradient id="grad2" x1="0%" y1="0%" x2="100%" y2="100%">
      <stop offset="0%" style="stop-color:#667eea;stop-opacity:1" />
      <stop offset="100%" style="stop-color:#764ba2;stop-opacity:1" />
    </linearGradient>
    <filter id="shadow" x="-30%" y="-30%" width="160%" height="160%">
      <feDropShadow dx="0" dy="4" stdDeviation="4" flood-color="rgba(0,0,0,0.3)"/>
    </filter>
  </defs>
  <circle cx="12" cy="12" r="11" fill="url(#grad2)" filter="url(#shadow)"/>
  <path d="M17 4H7c-1.1 0-2 .9-2 2v12c0 1.1.9 2 2 2h10c1.1 0 2-.9 2-2V6c0-1.1-.9-2-2-2zm-5 14c-1.1 0-2-.9-2-2s.9-2 2-2 2 .9 2 2-.9 2-2 2zm3-4H9V8h6v6z" fill="url(#grad1)"/>
  <circle cx="12" cy="16" r="1.5" fill="white"/>
  <rect x="9" y="8" width="6" height="6" fill="white" rx="1"/>
  <path d="M10.5 9.5h3v1h-3zm0 1.5h3v1h-3zm0 1.5h2.5v1h-2.5z" fill="url(#grad1)"/>
  <circle cx="18" cy="6" r="2" fill="#ff6b6b"/>
  <path d="M17.3 5.3l.7.7.7-.7c.2-.2.5-.2.7 0s.2.5 0 .7l-.7.7.7.7c.2.2.2.5 0 .7s-.5.2-.7 0l-.7-.7-.7.7c-.2.2-.5.2-.7 0s-.2-.5 0-.7l.7-.7-.7-.7c-.2-.2-.2-.5 0-.7s.5-.2.7 0z" fill="white" transform="scale(0.6) translate(5, 0)"/>
</svg>