<svg xmlns="http://www.w3.org/2000/svg" width="16" height="16" viewBox="0 0 24 24" fill="none">
  <defs>
    <linearGradient id="grad1" x1="0%" y1="0%" x2="100%" y2="100%">
      <stop offset="0%" style="stop-color:#4facfe;stop-opacity:1" />
      <stop offset="100%" style="stop-color:#00f2fe;stop-opacity:1" />
    </linearGradient>
  </defs>
  <path d="M17 3H7c-1.1 0-2 .9-2 2v14c0 1.1.9 2 2 2h10c1.1 0 2-.9 2-2V5c0-1.1-.9-2-2-2zm-5 16c-1.1 0-2-.9-2-2s.9-2 2-2 2 .9 2 2-.9 2-2 2zm3-4H9V9h6v6z" fill="url(#grad1)"/>
  <circle cx="12" cy="17" r="1" fill="white"/>
  <rect x="10" y="10" width="4" height="4" fill="white" rx="0.5"/>
</svg>